<svg width="1240" height="1080" viewBox="0 0 1240 1080" fill="none" xmlns="http://www.w3.org/2000/svg">
  <rect width="1240" height="1080" fill="#f4f4f1"/>
  <path d="M0 0H1240V1080H0V0Z" fill="url(#grid)"/>
  <rect x="74" y="74" width="1092" height="932" rx="18" fill="#050505"/>
  <rect x="118" y="124" width="1004" height="832" rx="10" fill="#f4f4f1"/>
  <rect x="118" y="124" width="1004" height="90" fill="#8ace00"/>
  <text x="176" y="182" fill="#050505" font-family="Arial Narrow, Arial, sans-serif" font-size="38" font-weight="900">ONLINE VOTING SYSTEM</text>
  <rect x="208" y="290" width="824" height="132" rx="8" fill="#ffffff" stroke="#050505" stroke-width="8"/>
  <rect x="248" y="326" width="60" height="60" fill="#8ace00" stroke="#050505" stroke-width="8"/>
  <path d="M260 354L278 374L310 334" stroke="#050505" stroke-width="12" stroke-linecap="round" stroke-linejoin="round"/>
  <rect x="348" y="330" width="428" height="20" fill="#050505"/>
  <rect x="348" y="374" width="264" height="18" fill="#050505" opacity=".55"/>
  <rect x="208" y="486" width="824" height="132" rx="8" fill="#ffffff" stroke="#050505" stroke-width="8"/>
  <rect x="248" y="522" width="60" height="60" fill="#f4f4f1" stroke="#050505" stroke-width="8"/>
  <rect x="348" y="526" width="496" height="20" fill="#050505"/>
  <rect x="348" y="570" width="310" height="18" fill="#050505" opacity=".55"/>
  <rect x="208" y="682" width="824" height="132" rx="8" fill="#ffffff" stroke="#050505" stroke-width="8"/>
  <rect x="248" y="718" width="60" height="60" fill="#f4f4f1" stroke="#050505" stroke-width="8"/>
  <rect x="348" y="722" width="392" height="20" fill="#050505"/>
  <rect x="348" y="766" width="284" height="18" fill="#050505" opacity=".55"/>
  <rect x="864" y="734" width="104" height="44" rx="22" fill="#8ace00" stroke="#050505" stroke-width="8"/>
  <circle cx="882" cy="756" r="10" fill="#050505"/>
  <defs>
    <pattern id="grid" width="42" height="42" patternUnits="userSpaceOnUse">
      <path d="M42 0H0V42" stroke="#050505" stroke-opacity=".08" stroke-width="2"/>
    </pattern>
  </defs>
</svg>
